<svg xmlns="http://www.w3.org/2000/svg" viewBox="0 0 1200 360" width="1200" height="360" role="img" aria-label="Cumulative commits and monthly volume across public repositories over the last 24 months. Total 286 commits.">
  <defs>
    <linearGradient id="bg" x1="0" x2="0" y1="0" y2="1">
      <stop offset="0" stop-color="#0E1626"/>
      <stop offset="1" stop-color="#0B1220"/>
    </linearGradient>
    <linearGradient id="area" x1="0" x2="0" y1="0" y2="1">
      <stop offset="0" stop-color="#22D3EE" stop-opacity="0.28"/>
      <stop offset="1" stop-color="#22D3EE" stop-opacity="0"/>
    </linearGradient>
  </defs>

  <rect x="0" y="0" width="1200" height="360" rx="10" fill="url(#bg)" stroke="#22D3EE" stroke-opacity="0.18"/>

  <!-- eyebrow -->
  <text x="78" y="36" font-family="ui-monospace,SFMono-Regular,Menlo,Consolas,monospace" font-size="14" font-weight="600" letter-spacing="1.2" fill="#E2ECF5">COMMIT ACTIVITY &#160;&#183;&#160; LAST 24 MONTHS</text>
  <text x="1122" y="36" text-anchor="end" font-family="ui-monospace,SFMono-Regular,Menlo,Consolas,monospace" font-size="14" letter-spacing="0.8" fill="#22D3EE" fill-opacity="0.9">286 commits &#183; refreshed 2026-05-22</text>

  <!-- left axis label -->
  <text x="66" y="56" text-anchor="end" font-family="ui-monospace,SFMono-Regular,Menlo,Consolas,monospace" font-size="13" font-weight="600" letter-spacing="1.6" fill="#7A8FA8">cumulative &#8593;</text>
  <text x="1134" y="56" text-anchor="start" font-family="ui-monospace,SFMono-Regular,Menlo,Consolas,monospace" font-size="13" font-weight="600" letter-spacing="1.6" fill="#7A8FA8">per month</text>

  <line x1="78" x2="1122" y1="298.0" y2="298.0" stroke="#243454" stroke-width="0.8"/><line x1="78" x2="1122" y1="241.5" y2="241.5" stroke="#243454" stroke-width="0.8"/><line x1="78" x2="1122" y1="185.0" y2="185.0" stroke="#243454" stroke-width="0.8"/><line x1="78" x2="1122" y1="128.5" y2="128.5" stroke="#243454" stroke-width="0.8"/><line x1="78" x2="1122" y1="72.0" y2="72.0" stroke="#243454" stroke-width="0.8"/>
  <rect x="86.3" y="298.0" width="27.0" height="0.0" rx="1.5" fill="#22D3EE" fill-opacity="0.22"><title>Jun 2024 · 0 commits</title></rect><rect x="129.8" y="298.0" width="27.0" height="0.0" rx="1.5" fill="#22D3EE" fill-opacity="0.22"><title>Jul 2024 · 0 commits</title></rect><rect x="173.3" y="298.0" width="27.0" height="0.0" rx="1.5" fill="#22D3EE" fill-opacity="0.22"><title>Aug 2024 · 0 commits</title></rect><rect x="216.8" y="125.0" width="27.0" height="173.0" rx="1.5" fill="#22D3EE" fill-opacity="0.22"><title>Sep 2024 · 62 commits</title></rect><rect x="260.3" y="298.0" width="27.0" height="0.0" rx="1.5" fill="#22D3EE" fill-opacity="0.22"><title>Oct 2024 · 0 commits</title></rect><rect x="303.8" y="298.0" width="27.0" height="0.0" rx="1.5" fill="#22D3EE" fill-opacity="0.22"><title>Nov 2024 · 0 commits</title></rect><rect x="347.3" y="298.0" width="27.0" height="0.0" rx="1.5" fill="#22D3EE" fill-opacity="0.22"><title>Dec 2024 · 0 commits</title></rect><rect x="390.8" y="298.0" width="27.0" height="0.0" rx="1.5" fill="#22D3EE" fill-opacity="0.22"><title>Jan 2025 · 0 commits</title></rect><rect x="434.3" y="264.5" width="27.0" height="33.5" rx="1.5" fill="#22D3EE" fill-opacity="0.22"><title>Feb 2025 · 12 commits</title></rect><rect x="477.8" y="278.5" width="27.0" height="19.5" rx="1.5" fill="#22D3EE" fill-opacity="0.22"><title>Mar 2025 · 7 commits</title></rect><rect x="521.3" y="253.4" width="27.0" height="44.6" rx="1.5" fill="#22D3EE" fill-opacity="0.22"><title>Apr 2025 · 16 commits</title></rect><rect x="564.8" y="298.0" width="27.0" height="0.0" rx="1.5" fill="#22D3EE" fill-opacity="0.22"><title>May 2025 · 0 commits</title></rect><rect x="608.3" y="298.0" width="27.0" height="0.0" rx="1.5" fill="#22D3EE" fill-opacity="0.22"><title>Jun 2025 · 0 commits</title></rect><rect x="651.8" y="298.0" width="27.0" height="0.0" rx="1.5" fill="#22D3EE" fill-opacity="0.22"><title>Jul 2025 · 0 commits</title></rect><rect x="695.3" y="281.3" width="27.0" height="16.7" rx="1.5" fill="#22D3EE" fill-opacity="0.22"><title>Aug 2025 · 6 commits</title></rect><rect x="738.8" y="284.0" width="27.0" height="14.0" rx="1.5" fill="#22D3EE" fill-opacity="0.22"><title>Sep 2025 · 5 commits</title></rect><rect x="782.3" y="289.6" width="27.0" height="8.4" rx="1.5" fill="#22D3EE" fill-opacity="0.22"><title>Oct 2025 · 3 commits</title></rect><rect x="825.8" y="286.8" width="27.0" height="11.2" rx="1.5" fill="#22D3EE" fill-opacity="0.22"><title>Nov 2025 · 4 commits</title></rect><rect x="869.3" y="298.0" width="27.0" height="0.0" rx="1.5" fill="#22D3EE" fill-opacity="0.22"><title>Dec 2025 · 0 commits</title></rect><rect x="912.8" y="278.5" width="27.0" height="19.5" rx="1.5" fill="#22D3EE" fill-opacity="0.22"><title>Jan 2026 · 7 commits</title></rect><rect x="956.3" y="272.9" width="27.0" height="25.1" rx="1.5" fill="#22D3EE" fill-opacity="0.22"><title>Feb 2026 · 9 commits</title></rect><rect x="999.8" y="72.0" width="27.0" height="226.0" rx="1.5" fill="#22D3EE" fill-opacity="0.22"><title>Mar 2026 · 81 commits</title></rect><rect x="1043.3" y="197.6" width="27.0" height="100.4" rx="1.5" fill="#22D3EE" fill-opacity="0.22"><title>Apr 2026 · 36 commits</title></rect><rect x="1086.8" y="192.0" width="27.0" height="106.0" rx="1.5" fill="#22D3EE" fill-opacity="0.22"><title>May 2026 · 38 commits</title></rect>

  <!-- cumulative area + line -->
  <path d="M 99.8 298.0 L 143.3 298.0 L 186.8 298.0 L 230.3 249.0 L 273.8 249.0 L 317.3 249.0 L 360.8 249.0 L 404.3 249.0 L 447.8 239.5 L 491.3 234.0 L 534.8 221.3 L 578.3 221.3 L 621.8 221.3 L 665.3 221.3 L 708.8 216.6 L 752.3 212.7 L 795.8 210.3 L 839.3 207.1 L 882.8 207.1 L 926.3 201.6 L 969.8 194.5 L 1013.3 130.5 L 1056.8 102.0 L 1100.3 72.0 L 1100.3 298 L 99.8 298 Z" fill="url(#area)"/>
  <path d="M 99.8 298.0 L 143.3 298.0 L 186.8 298.0 L 230.3 249.0 L 273.8 249.0 L 317.3 249.0 L 360.8 249.0 L 404.3 249.0 L 447.8 239.5 L 491.3 234.0 L 534.8 221.3 L 578.3 221.3 L 621.8 221.3 L 665.3 221.3 L 708.8 216.6 L 752.3 212.7 L 795.8 210.3 L 839.3 207.1 L 882.8 207.1 L 926.3 201.6 L 969.8 194.5 L 1013.3 130.5 L 1056.8 102.0 L 1100.3 72.0" fill="none" stroke="#22D3EE" stroke-width="1.8" stroke-linejoin="round" stroke-linecap="round" stroke-dasharray="1079" stroke-dashoffset="1079">
    <animate attributeName="stroke-dashoffset" from="1079" to="0" dur="2.2s" fill="freeze" calcMode="spline" keyTimes="0;1" keySplines="0.16 1 0.3 1"/>
  </path>

  <!-- latest point pulse -->
  <circle cx="1100.3" cy="72.0" r="3" fill="#22D3EE">
    <animate attributeName="r" values="2.4;4;2.4" dur="2.4s" repeatCount="indefinite" begin="2.2s"/>
    <animate attributeName="opacity" values="0.7;1;0.7" dur="2.4s" repeatCount="indefinite" begin="2.2s"/>
  </circle>
  <circle cx="1100.3" cy="72.0" r="3" fill="none" stroke="#22D3EE" stroke-opacity="0.5">
    <animate attributeName="r" values="3;14;3" dur="2.4s" repeatCount="indefinite" begin="2.2s"/>
    <animate attributeName="opacity" values="0.55;0;0.55" dur="2.4s" repeatCount="indefinite" begin="2.2s"/>
  </circle>

  <text x="66" y="303.0" text-anchor="end" font-family="ui-monospace,SFMono-Regular,Menlo,Consolas,monospace" font-size="14" font-weight="500" fill="#9FB2C8">0</text><text x="66" y="246.5" text-anchor="end" font-family="ui-monospace,SFMono-Regular,Menlo,Consolas,monospace" font-size="14" font-weight="500" fill="#9FB2C8">72</text><text x="66" y="190.0" text-anchor="end" font-family="ui-monospace,SFMono-Regular,Menlo,Consolas,monospace" font-size="14" font-weight="500" fill="#9FB2C8">143</text><text x="66" y="133.5" text-anchor="end" font-family="ui-monospace,SFMono-Regular,Menlo,Consolas,monospace" font-size="14" font-weight="500" fill="#9FB2C8">215</text><text x="66" y="77.0" text-anchor="end" font-family="ui-monospace,SFMono-Regular,Menlo,Consolas,monospace" font-size="14" font-weight="500" fill="#9FB2C8">286</text>
  <text x="1134" y="303.0" text-anchor="start" font-family="ui-monospace,SFMono-Regular,Menlo,Consolas,monospace" font-size="14" font-weight="500" fill="#9FB2C8">0</text><text x="1134" y="246.5" text-anchor="start" font-family="ui-monospace,SFMono-Regular,Menlo,Consolas,monospace" font-size="14" font-weight="500" fill="#9FB2C8">20</text><text x="1134" y="190.0" text-anchor="start" font-family="ui-monospace,SFMono-Regular,Menlo,Consolas,monospace" font-size="14" font-weight="500" fill="#9FB2C8">41</text><text x="1134" y="133.5" text-anchor="start" font-family="ui-monospace,SFMono-Regular,Menlo,Consolas,monospace" font-size="14" font-weight="500" fill="#9FB2C8">61</text><text x="1134" y="77.0" text-anchor="start" font-family="ui-monospace,SFMono-Regular,Menlo,Consolas,monospace" font-size="14" font-weight="500" fill="#9FB2C8">81</text>
  <text x="99.8" y="328" text-anchor="middle" font-family="ui-monospace,SFMono-Regular,Menlo,Consolas,monospace" font-size="14" font-weight="500" fill="#9FB2C8" letter-spacing="0.4">Jun '24</text><text x="230.3" y="328" text-anchor="middle" font-family="ui-monospace,SFMono-Regular,Menlo,Consolas,monospace" font-size="14" font-weight="500" fill="#9FB2C8" letter-spacing="0.4">Sep</text><text x="360.8" y="328" text-anchor="middle" font-family="ui-monospace,SFMono-Regular,Menlo,Consolas,monospace" font-size="14" font-weight="500" fill="#9FB2C8" letter-spacing="0.4">Dec</text><text x="491.3" y="328" text-anchor="middle" font-family="ui-monospace,SFMono-Regular,Menlo,Consolas,monospace" font-size="14" font-weight="500" fill="#9FB2C8" letter-spacing="0.4">Mar</text><text x="621.8" y="328" text-anchor="middle" font-family="ui-monospace,SFMono-Regular,Menlo,Consolas,monospace" font-size="14" font-weight="500" fill="#9FB2C8" letter-spacing="0.4">Jun</text><text x="752.3" y="328" text-anchor="middle" font-family="ui-monospace,SFMono-Regular,Menlo,Consolas,monospace" font-size="14" font-weight="500" fill="#9FB2C8" letter-spacing="0.4">Sep</text><text x="882.8" y="328" text-anchor="middle" font-family="ui-monospace,SFMono-Regular,Menlo,Consolas,monospace" font-size="14" font-weight="500" fill="#9FB2C8" letter-spacing="0.4">Dec</text><text x="1013.3" y="328" text-anchor="middle" font-family="ui-monospace,SFMono-Regular,Menlo,Consolas,monospace" font-size="14" font-weight="500" fill="#9FB2C8" letter-spacing="0.4">Mar</text><text x="1100.3" y="328" text-anchor="middle" font-family="ui-monospace,SFMono-Regular,Menlo,Consolas,monospace" font-size="14" font-weight="500" fill="#9FB2C8" letter-spacing="0.4">May</text>
</svg>
