<svg xmlns="http://www.w3.org/2000/svg" viewBox="0 0 1200 360" width="1200" height="360" role="img" aria-label="Cumulative commits and monthly volume across public repositories over the last 24 months. Total 302 commits.">

  <defs>
    <linearGradient id="bg" x1="0" x2="0" y1="0" y2="1">
      <stop offset="0" stop-color="#0E1626"/>
      <stop offset="1" stop-color="#0B1220"/>
    </linearGradient>
    <linearGradient id="area" x1="0" x2="0" y1="0" y2="1">
      <stop offset="0" stop-color="#22D3EE" stop-opacity="0.28"/>
      <stop offset="1" stop-color="#22D3EE" stop-opacity="0"/>
    </linearGradient>
  </defs>

  <rect x="0" y="0" width="1200" height="360" rx="10" fill="url(#bg)" stroke="#22D3EE" stroke-opacity="0.18"/>

  <!-- eyebrow -->

  <text x="72" y="34" font-family="ui-monospace,SFMono-Regular,Menlo,Consolas,monospace" font-size="14" font-weight="600" letter-spacing="1.2" fill="#E2ECF5">COMMIT ACTIVITY &#160;&#183;&#160; LAST 24 MONTHS</text>
  <text x="1128" y="34" text-anchor="end" font-family="ui-monospace,SFMono-Regular,Menlo,Consolas,monospace" font-size="14" letter-spacing="0.8" fill="#22D3EE" fill-opacity="0.9">302 commits &#183; refreshed 2026-05-22</text>


  <!-- left axis label -->
  <text x="60" y="50" text-anchor="end" font-family="ui-monospace,SFMono-Regular,Menlo,Consolas,monospace" font-size="13" font-weight="600" letter-spacing="1.6" fill="#7A8FA8">cumulative &#8593;</text>
  <text x="1140" y="50" text-anchor="start" font-family="ui-monospace,SFMono-Regular,Menlo,Consolas,monospace" font-size="13" font-weight="600" letter-spacing="1.6" fill="#7A8FA8">per month</text>

  <line x1="72" x2="1128" y1="286.0" y2="286.0" stroke="#243454" stroke-width="0.8"/><line x1="72" x2="1128" y1="230.5" y2="230.5" stroke="#243454" stroke-width="0.8"/><line x1="72" x2="1128" y1="175.0" y2="175.0" stroke="#243454" stroke-width="0.8"/><line x1="72" x2="1128" y1="119.5" y2="119.5" stroke="#243454" stroke-width="0.8"/><line x1="72" x2="1128" y1="64.0" y2="64.0" stroke="#243454" stroke-width="0.8"/>
  <rect x="80.4" y="286.0" width="27.3" height="0.0" rx="1.5" fill="#22D3EE" fill-opacity="0.22"><title>Jun 2024 · 0 commits</title></rect><rect x="124.4" y="286.0" width="27.3" height="0.0" rx="1.5" fill="#22D3EE" fill-opacity="0.22"><title>Jul 2024 · 0 commits</title></rect><rect x="168.4" y="286.0" width="27.3" height="0.0" rx="1.5" fill="#22D3EE" fill-opacity="0.22"><title>Aug 2024 · 0 commits</title></rect><rect x="212.4" y="116.1" width="27.3" height="169.9" rx="1.5" fill="#22D3EE" fill-opacity="0.22"><title>Sep 2024 · 62 commits</title></rect><rect x="256.4" y="286.0" width="27.3" height="0.0" rx="1.5" fill="#22D3EE" fill-opacity="0.22"><title>Oct 2024 · 0 commits</title></rect><rect x="300.4" y="286.0" width="27.3" height="0.0" rx="1.5" fill="#22D3EE" fill-opacity="0.22"><title>Nov 2024 · 0 commits</title></rect><rect x="344.4" y="286.0" width="27.3" height="0.0" rx="1.5" fill="#22D3EE" fill-opacity="0.22"><title>Dec 2024 · 0 commits</title></rect><rect x="388.4" y="286.0" width="27.3" height="0.0" rx="1.5" fill="#22D3EE" fill-opacity="0.22"><title>Jan 2025 · 0 commits</title></rect><rect x="432.4" y="253.1" width="27.3" height="32.9" rx="1.5" fill="#22D3EE" fill-opacity="0.22"><title>Feb 2025 · 12 commits</title></rect><rect x="476.4" y="266.8" width="27.3" height="19.2" rx="1.5" fill="#22D3EE" fill-opacity="0.22"><title>Mar 2025 · 7 commits</title></rect><rect x="520.4" y="242.1" width="27.3" height="43.9" rx="1.5" fill="#22D3EE" fill-opacity="0.22"><title>Apr 2025 · 16 commits</title></rect><rect x="564.4" y="286.0" width="27.3" height="0.0" rx="1.5" fill="#22D3EE" fill-opacity="0.22"><title>May 2025 · 0 commits</title></rect><rect x="608.4" y="286.0" width="27.3" height="0.0" rx="1.5" fill="#22D3EE" fill-opacity="0.22"><title>Jun 2025 · 0 commits</title></rect><rect x="652.4" y="286.0" width="27.3" height="0.0" rx="1.5" fill="#22D3EE" fill-opacity="0.22"><title>Jul 2025 · 0 commits</title></rect><rect x="696.4" y="269.6" width="27.3" height="16.4" rx="1.5" fill="#22D3EE" fill-opacity="0.22"><title>Aug 2025 · 6 commits</title></rect><rect x="740.4" y="272.3" width="27.3" height="13.7" rx="1.5" fill="#22D3EE" fill-opacity="0.22"><title>Sep 2025 · 5 commits</title></rect><rect x="784.4" y="277.8" width="27.3" height="8.2" rx="1.5" fill="#22D3EE" fill-opacity="0.22"><title>Oct 2025 · 3 commits</title></rect><rect x="828.4" y="275.0" width="27.3" height="11.0" rx="1.5" fill="#22D3EE" fill-opacity="0.22"><title>Nov 2025 · 4 commits</title></rect><rect x="872.4" y="286.0" width="27.3" height="0.0" rx="1.5" fill="#22D3EE" fill-opacity="0.22"><title>Dec 2025 · 0 commits</title></rect><rect x="916.4" y="266.8" width="27.3" height="19.2" rx="1.5" fill="#22D3EE" fill-opacity="0.22"><title>Jan 2026 · 7 commits</title></rect><rect x="960.4" y="261.3" width="27.3" height="24.7" rx="1.5" fill="#22D3EE" fill-opacity="0.22"><title>Feb 2026 · 9 commits</title></rect><rect x="1004.4" y="64.0" width="27.3" height="222.0" rx="1.5" fill="#22D3EE" fill-opacity="0.22"><title>Mar 2026 · 81 commits</title></rect><rect x="1048.4" y="187.3" width="27.3" height="98.7" rx="1.5" fill="#22D3EE" fill-opacity="0.22"><title>Apr 2026 · 36 commits</title></rect><rect x="1092.4" y="181.9" width="27.3" height="104.1" rx="1.5" fill="#22D3EE" fill-opacity="0.22"><title>May 2026 · 38 commits</title></rect>

  <!-- cumulative area + line -->
  <path d="M 94.0 286.0 L 138.0 286.0 L 182.0 286.0 L 226.0 237.9 L 270.0 237.9 L 314.0 237.9 L 358.0 237.9 L 402.0 237.9 L 446.0 228.6 L 490.0 223.1 L 534.0 210.7 L 578.0 210.7 L 622.0 210.7 L 666.0 210.7 L 710.0 206.0 L 754.0 202.2 L 798.0 199.8 L 842.0 196.7 L 886.0 196.7 L 930.0 191.3 L 974.0 184.3 L 1018.0 121.4 L 1062.0 93.5 L 1106.0 64.0 L 1106.0 286 L 94.0 286 Z" fill="url(#area)"/>
  <path d="M 94.0 286.0 L 138.0 286.0 L 182.0 286.0 L 226.0 237.9 L 270.0 237.9 L 314.0 237.9 L 358.0 237.9 L 402.0 237.9 L 446.0 228.6 L 490.0 223.1 L 534.0 210.7 L 578.0 210.7 L 622.0 210.7 L 666.0 210.7 L 710.0 206.0 L 754.0 202.2 L 798.0 199.8 L 842.0 196.7 L 886.0 196.7 L 930.0 191.3 L 974.0 184.3 L 1018.0 121.4 L 1062.0 93.5 L 1106.0 64.0" fill="none" stroke="#22D3EE" stroke-width="1.8" stroke-linejoin="round" stroke-linecap="round" stroke-dasharray="1088" stroke-dashoffset="1088">
    <animate attributeName="stroke-dashoffset" from="1088" to="0" dur="2.2s" fill="freeze" calcMode="spline" keyTimes="0;1" keySplines="0.16 1 0.3 1"/>
  </path>

  <!-- latest point pulse -->
  <circle cx="1106.0" cy="64.0" r="3" fill="#22D3EE">
    <animate attributeName="r" values="2.4;4;2.4" dur="2.4s" repeatCount="indefinite" begin="2.2s"/>
    <animate attributeName="opacity" values="0.7;1;0.7" dur="2.4s" repeatCount="indefinite" begin="2.2s"/>
  </circle>
  <circle cx="1106.0" cy="64.0" r="3" fill="none" stroke="#22D3EE" stroke-opacity="0.5">
    <animate attributeName="r" values="3;14;3" dur="2.4s" repeatCount="indefinite" begin="2.2s"/>
    <animate attributeName="opacity" values="0.55;0;0.55" dur="2.4s" repeatCount="indefinite" begin="2.2s"/>
  </circle>

  <text x="60" y="290.0" text-anchor="end" font-family="ui-monospace,SFMono-Regular,Menlo,Consolas,monospace" font-size="14" font-weight="500" fill="#9FB2C8">0</text><text x="60" y="234.5" text-anchor="end" font-family="ui-monospace,SFMono-Regular,Menlo,Consolas,monospace" font-size="14" font-weight="500" fill="#9FB2C8">76</text><text x="60" y="179.0" text-anchor="end" font-family="ui-monospace,SFMono-Regular,Menlo,Consolas,monospace" font-size="14" font-weight="500" fill="#9FB2C8">151</text><text x="60" y="123.5" text-anchor="end" font-family="ui-monospace,SFMono-Regular,Menlo,Consolas,monospace" font-size="14" font-weight="500" fill="#9FB2C8">227</text><text x="60" y="68.0" text-anchor="end" font-family="ui-monospace,SFMono-Regular,Menlo,Consolas,monospace" font-size="14" font-weight="500" fill="#9FB2C8">302</text>
  <text x="1140" y="290.0" text-anchor="start" font-family="ui-monospace,SFMono-Regular,Menlo,Consolas,monospace" font-size="14" font-weight="500" fill="#9FB2C8">0</text><text x="1140" y="234.5" text-anchor="start" font-family="ui-monospace,SFMono-Regular,Menlo,Consolas,monospace" font-size="14" font-weight="500" fill="#9FB2C8">20</text><text x="1140" y="179.0" text-anchor="start" font-family="ui-monospace,SFMono-Regular,Menlo,Consolas,monospace" font-size="14" font-weight="500" fill="#9FB2C8">41</text><text x="1140" y="123.5" text-anchor="start" font-family="ui-monospace,SFMono-Regular,Menlo,Consolas,monospace" font-size="14" font-weight="500" fill="#9FB2C8">61</text><text x="1140" y="68.0" text-anchor="start" font-family="ui-monospace,SFMono-Regular,Menlo,Consolas,monospace" font-size="14" font-weight="500" fill="#9FB2C8">81</text>
  <text x="94.0" y="322" text-anchor="middle" font-family="ui-monospace,SFMono-Regular,Menlo,Consolas,monospace" font-size="14" font-weight="500" fill="#9FB2C8" letter-spacing="0.4">Jun '24</text><text x="226.0" y="322" text-anchor="middle" font-family="ui-monospace,SFMono-Regular,Menlo,Consolas,monospace" font-size="14" font-weight="500" fill="#9FB2C8" letter-spacing="0.4">Sep</text><text x="358.0" y="322" text-anchor="middle" font-family="ui-monospace,SFMono-Regular,Menlo,Consolas,monospace" font-size="14" font-weight="500" fill="#9FB2C8" letter-spacing="0.4">Dec</text><text x="490.0" y="322" text-anchor="middle" font-family="ui-monospace,SFMono-Regular,Menlo,Consolas,monospace" font-size="14" font-weight="500" fill="#9FB2C8" letter-spacing="0.4">Mar</text><text x="622.0" y="322" text-anchor="middle" font-family="ui-monospace,SFMono-Regular,Menlo,Consolas,monospace" font-size="14" font-weight="500" fill="#9FB2C8" letter-spacing="0.4">Jun</text><text x="754.0" y="322" text-anchor="middle" font-family="ui-monospace,SFMono-Regular,Menlo,Consolas,monospace" font-size="14" font-weight="500" fill="#9FB2C8" letter-spacing="0.4">Sep</text><text x="886.0" y="322" text-anchor="middle" font-family="ui-monospace,SFMono-Regular,Menlo,Consolas,monospace" font-size="14" font-weight="500" fill="#9FB2C8" letter-spacing="0.4">Dec</text><text x="1018.0" y="322" text-anchor="middle" font-family="ui-monospace,SFMono-Regular,Menlo,Consolas,monospace" font-size="14" font-weight="500" fill="#9FB2C8" letter-spacing="0.4">Mar</text><text x="1106.0" y="322" text-anchor="middle" font-family="ui-monospace,SFMono-Regular,Menlo,Consolas,monospace" font-size="14" font-weight="500" fill="#9FB2C8" letter-spacing="0.4">May</text>

</svg>
